<?xml version="1.0" standalone="no"?>
<!DOCTYPE svg PUBLIC "-//W3C//DTD SVG 20010904//EN"
 "http://www.w3.org/TR/2001/REC-SVG-20010904/DTD/svg10.dtd">
<svg version="1.0" xmlns="http://www.w3.org/2000/svg"
 width="70.000000pt" height="70.000000pt" viewBox="0 0 70.000000 70.000000"
 preserveAspectRatio="xMidYMid meet">
<metadata>
Created by potrace 1.11, written by Peter Selinger 2001-2013
</metadata>
<g transform="translate(0.000000,70.000000) scale(0.100000,-0.100000)"
fill="#000000" stroke="none">
<path d="M275 646 c-139 -43 -226 -155 -228 -294 -1 -72 27 -155 64 -188 26
-23 24 -12 -6 32 -96 142 -34 345 129 420 76 35 167 35 251 0 54 -23 70 -37
53 -48 -9 -7 -7 -8 7 -4 15 4 29 -6 58 -46 23 -31 36 -60 34 -70 -3 -11 -1
-15 5 -12 7 5 9 -2 6 -19 -3 -15 -1 -24 3 -21 13 7 11 -74 -2 -121 -6 -22 -23
-58 -38 -80 -43 -64 -45 -73 -6 -30 42 46 69 126 67 202 -1 80 -48 165 -127
231 -56 47 -193 71 -270 48z"/>
<path d="M402 601 c-13 -8 -12 -57 2 -80 7 -11 -24 -31 -48 -31 -13 0 -14 3
-5 18 9 14 8 25 -2 47 -8 16 -19 30 -26 32 -19 7 -53 -35 -53 -64 -1 -18 -13
-40 -35 -63 -19 -19 -35 -38 -35 -43 0 -6 15 -24 34 -41 l35 -31 -35 -70 c-35
-72 -63 -116 -109 -172 -46 -57 -4 -37 55 25 77 81 104 98 46 29 -27 -32 -46
-60 -43 -64 9 -8 66 17 75 34 15 25 104 113 116 113 7 0 20 -6 30 -13 16 -12
16 -15 -4 -59 -11 -26 -25 -50 -30 -53 -12 -7 -14 -36 -2 -33 4 1 17 -3 30
-10 25 -14 27 -10 11 16 -10 15 -6 26 20 62 33 45 44 47 13 2 -23 -33 -34 -62
-24 -63 13 -1 45 -8 69 -14 26 -6 30 6 8 25 -12 10 -10 20 15 71 32 63 31 81
-10 139 -11 16 -20 30 -20 33 0 3 20 17 45 31 25 15 45 30 45 33 0 19 -46 94
-62 99 -10 3 -18 10 -18 15 0 5 -7 9 -15 9 -12 0 -15 9 -12 38 3 35 1 38 -22
40 -14 1 -32 -2 -39 -7z m-126 -205 c1 -27 1 -27 -19 -8 -11 11 -16 25 -12 32
12 19 30 5 31 -24z m248 25 c3 -4 -4 -17 -16 -27 -20 -18 -21 -18 -15 -1 4 10
7 23 7 28 0 11 17 12 24 0z m-44 -197 c0 -7 -4 -16 -10 -19 -6 -3 -7 1 -4 10
4 10 -3 27 -17 43 l-24 27 28 -24 c15 -14 27 -30 27 -37z"/>
</g>
</svg>
